<mxfile host="app.diagrams.net" modified="2023-02-24T04:21:54.828Z" agent="5.0 (Windows NT 10.0; Win64; x64) AppleWebKit/537.36 (KHTML, like Gecko) Chrome/110.0.0.0 Safari/537.36 Edg/110.0.1587.50" version="20.8.23" etag="yzNW0YGv-y9RJtTjOZ25" type="github">
  <diagram name="Page-1" id="5d7acffa-a066-3a61-03fe-96351882024d">
    <mxGraphModel dx="2074" dy="1166" grid="1" gridSize="10" guides="1" tooltips="1" connect="1" arrows="1" fold="1" page="1" pageScale="1" pageWidth="1100" pageHeight="850" background="#ffffff" math="0" shadow="0">
      <root>
        <mxCell id="0" />
        <mxCell id="1" parent="0" />
        <mxCell id="MF2A-QJHD-7ca1o9ArYh-18" style="edgeStyle=orthogonalEdgeStyle;rounded=0;orthogonalLoop=1;jettySize=auto;html=1;fontSize=12;" edge="1" parent="1" source="2debaab0fafb2da2-10" target="21ea969265ad0168-14">
          <mxGeometry relative="1" as="geometry" />
        </mxCell>
        <mxCell id="2debaab0fafb2da2-10" value="$role" style="html=1;rounded=0;shadow=0;comic=0;labelBackgroundColor=none;strokeWidth=2;fontFamily=Verdana;fontSize=12;align=center;shape=mxgraph.ios7ui.horLines;" parent="1" vertex="1">
          <mxGeometry x="41.25" y="195" width="42.5" height="20" as="geometry" />
        </mxCell>
        <mxCell id="MNGuI7QMeHTy9qWYFs6P-34" style="edgeStyle=orthogonalEdgeStyle;rounded=0;orthogonalLoop=1;jettySize=auto;html=1;fontColor=#000000;" parent="1" source="21ea969265ad0168-6" target="2debaab0fafb2da2-10" edge="1">
          <mxGeometry relative="1" as="geometry" />
        </mxCell>
        <mxCell id="21ea969265ad0168-6" value="PLAYBOOK loadbalancer.yml" style="swimlane;html=1;fontStyle=0;childLayout=stackLayout;horizontal=1;startSize=26;fillColor=#e0e0e0;horizontalStack=0;resizeParent=1;resizeLast=0;collapsible=1;marginBottom=0;swimlaneFillColor=#ffffff;align=center;rounded=1;shadow=0;comic=0;labelBackgroundColor=none;strokeWidth=1;fontFamily=Verdana;fontSize=12" parent="1" vertex="1">
          <mxGeometry x="41.25" y="40" width="250" height="120" as="geometry">
            <mxRectangle x="160" y="74" width="210" height="30" as="alternateBounds" />
          </mxGeometry>
        </mxCell>
        <mxCell id="21ea969265ad0168-8" value="&lt;div style=&quot;color: rgb(212, 212, 212); font-family: &amp;quot;Droid Sans Mono&amp;quot;, &amp;quot;monospace&amp;quot;, monospace; font-weight: normal; line-height: 19px;&quot;&gt;&lt;div&gt;&lt;font style=&quot;font-size: 12px;&quot;&gt;&lt;span style=&quot;color: rgb(212, 212, 212); background-color: rgb(255, 255, 255);&quot;&gt;- &lt;/span&gt;&lt;span style=&quot;color: rgb(86, 156, 214); background-color: rgb(255, 255, 255);&quot;&gt;name&lt;/span&gt;&lt;span style=&quot;color: rgb(212, 212, 212); background-color: rgb(255, 255, 255);&quot;&gt;: &lt;/span&gt;&lt;span style=&quot;color: rgb(206, 145, 120); background-color: rgb(255, 255, 255);&quot;&gt;Load balancer playnook&lt;/span&gt;&lt;/font&gt;&lt;/div&gt;&lt;div&gt;&lt;font style=&quot;font-size: 12px;&quot;&gt;&amp;nbsp; &lt;span style=&quot;color: rgb(86, 156, 214); background-color: rgb(255, 255, 255);&quot;&gt;hosts&lt;/span&gt;&lt;span style=&quot;color: rgb(212, 212, 212); background-color: rgb(255, 255, 255);&quot;&gt;: &lt;/span&gt;&lt;span style=&quot;color: rgb(206, 145, 120); background-color: rgb(255, 255, 255);&quot;&gt;loadbalancers&lt;/span&gt;&lt;/font&gt;&lt;/div&gt;&lt;div&gt;&lt;font style=&quot;font-size: 12px;&quot;&gt;&lt;span style=&quot;color: rgb(212, 212, 212); background-color: rgb(255, 255, 255);&quot;&gt;&amp;nbsp; &lt;/span&gt;&lt;span style=&quot;color: rgb(86, 156, 214); background-color: rgb(255, 255, 255);&quot;&gt;roles&lt;/span&gt;&lt;span style=&quot;color: rgb(212, 212, 212); background-color: rgb(255, 255, 255);&quot;&gt;:&lt;/span&gt;&lt;/font&gt;&lt;/div&gt;&lt;div&gt;&lt;font style=&quot;font-size: 12px;&quot;&gt;&lt;span style=&quot;background-color: rgb(255, 255, 255);&quot;&gt;&amp;nbsp;&amp;nbsp;&amp;nbsp;&amp;nbsp; &lt;span style=&quot;color: #d4d4d4;&quot;&gt;&lt;/span&gt;&lt;span style=&quot;color: #569cd6;&quot;&gt;role&lt;/span&gt;&lt;span style=&quot;color: #d4d4d4;&quot;&gt;: &lt;/span&gt;&lt;span style=&quot;color: #ce9178;&quot;&gt;haproxy&lt;/span&gt;&lt;/span&gt;&lt;/font&gt;&lt;/div&gt;&lt;/div&gt;" style="text;html=1;strokeColor=none;fillColor=none;spacingLeft=4;spacingRight=4;whiteSpace=wrap;overflow=hidden;rotatable=0;points=[[0,0.5],[1,0.5]];portConstraint=eastwest;" parent="21ea969265ad0168-6" vertex="1">
          <mxGeometry y="26" width="250" height="94" as="geometry" />
        </mxCell>
        <mxCell id="MF2A-QJHD-7ca1o9ArYh-8" style="edgeStyle=orthogonalEdgeStyle;rounded=0;orthogonalLoop=1;jettySize=auto;html=1;entryX=-0.007;entryY=0.82;entryDx=0;entryDy=0;entryPerimeter=0;" edge="1" parent="1" source="21ea969265ad0168-10" target="MNGuI7QMeHTy9qWYFs6P-63">
          <mxGeometry relative="1" as="geometry" />
        </mxCell>
        <mxCell id="21ea969265ad0168-10" value="INVENTARIO loadbalancer" style="swimlane;html=1;fontStyle=0;childLayout=stackLayout;horizontal=1;startSize=26;fillColor=#e0e0e0;horizontalStack=0;resizeParent=1;resizeLast=0;collapsible=1;marginBottom=0;swimlaneFillColor=#ffffff;align=center;rounded=1;shadow=0;comic=0;labelBackgroundColor=none;strokeWidth=1;fontFamily=Verdana;fontSize=12" parent="1" vertex="1">
          <mxGeometry x="400" y="50" width="470" height="110" as="geometry" />
        </mxCell>
        <mxCell id="21ea969265ad0168-52" value="&lt;div style=&quot;color: rgb(212, 212, 212); font-family: &amp;quot;Droid Sans Mono&amp;quot;, &amp;quot;monospace&amp;quot;, monospace; font-weight: normal; line-height: 19px;&quot;&gt;&lt;div&gt;&lt;font style=&quot;font-size: 12px;&quot;&gt;&lt;span style=&quot;background-color: transparent;&quot;&gt;&lt;font style=&quot;font-size: 12px;&quot; color=&quot;#000000&quot;&gt;[loadbalancers]&lt;/font&gt;&lt;/span&gt;&lt;/font&gt;&lt;/div&gt;&lt;div&gt;&lt;font style=&quot;font-size: 12px;&quot;&gt;&lt;span style=&quot;color: rgb(106, 153, 85); background-color: transparent;&quot;&gt;#hostname ip user&lt;/span&gt;&lt;/font&gt;&lt;/div&gt;&lt;div&gt;&lt;font style=&quot;font-size: 12px;&quot; color=&quot;#000000&quot;&gt;&lt;span style=&quot;background-color: transparent;&quot;&gt;loadbalancer ansible_host=&lt;/span&gt;&lt;span style=&quot;background-color: transparent;&quot;&gt;192.168&lt;/span&gt;&lt;span style=&quot;background-color: transparent;&quot;&gt;.&lt;/span&gt;&lt;span style=&quot;background-color: transparent;&quot;&gt;56.201&lt;/span&gt;&lt;span style=&quot;background-color: transparent;&quot;&gt; ansible_user=root&lt;/span&gt;&lt;/font&gt;&lt;/div&gt;&lt;/div&gt;" style="text;html=1;strokeColor=none;fillColor=none;spacingLeft=4;spacingRight=4;whiteSpace=wrap;overflow=hidden;rotatable=0;points=[[0,0.5],[1,0.5]];portConstraint=eastwest;" parent="21ea969265ad0168-10" vertex="1">
          <mxGeometry y="26" width="470" height="74" as="geometry" />
        </mxCell>
        <mxCell id="21ea969265ad0168-14" value="./roles/haproxy" style="swimlane;html=1;fontStyle=0;childLayout=stackLayout;horizontal=1;startSize=26;fillColor=#e0e0e0;horizontalStack=0;resizeParent=1;resizeLast=0;collapsible=1;marginBottom=0;swimlaneFillColor=#ffffff;align=center;rounded=1;shadow=0;comic=0;labelBackgroundColor=none;strokeWidth=1;fontFamily=Verdana;fontSize=12;arcSize=22;" parent="1" vertex="1">
          <mxGeometry x="287.5" y="170" width="115" height="142" as="geometry" />
        </mxCell>
        <mxCell id="21ea969265ad0168-15" value="&lt;div&gt;./defaults&lt;/div&gt;" style="text;html=1;strokeColor=default;fillColor=none;spacingLeft=4;spacingRight=4;whiteSpace=wrap;overflow=hidden;rotatable=0;points=[[0,0.5],[1,0.5]];portConstraint=eastwest;" parent="21ea969265ad0168-14" vertex="1">
          <mxGeometry y="26" width="115" height="26" as="geometry" />
        </mxCell>
        <mxCell id="MNGuI7QMeHTy9qWYFs6P-37" value="./templates" style="text;strokeColor=none;fillColor=none;align=left;verticalAlign=middle;spacingLeft=4;spacingRight=4;overflow=hidden;points=[[0,0.5],[1,0.5]];portConstraint=eastwest;rotatable=0;whiteSpace=wrap;html=1;fontColor=#000000;" parent="21ea969265ad0168-14" vertex="1">
          <mxGeometry y="52" width="115" height="30" as="geometry" />
        </mxCell>
        <mxCell id="MNGuI7QMeHTy9qWYFs6P-36" value="&lt;div&gt;./handlers&lt;/div&gt;" style="text;strokeColor=default;fillColor=none;align=left;verticalAlign=middle;spacingLeft=4;spacingRight=4;overflow=hidden;points=[[0,0.5],[1,0.5]];portConstraint=eastwest;rotatable=0;whiteSpace=wrap;html=1;fontColor=#000000;" parent="21ea969265ad0168-14" vertex="1">
          <mxGeometry y="82" width="115" height="30" as="geometry" />
        </mxCell>
        <mxCell id="MNGuI7QMeHTy9qWYFs6P-40" value="&lt;div&gt;./tasks&lt;/div&gt;" style="text;strokeColor=default;fillColor=none;align=left;verticalAlign=middle;spacingLeft=4;spacingRight=4;overflow=hidden;points=[[0,0.5],[1,0.5]];portConstraint=eastwest;rotatable=0;whiteSpace=wrap;html=1;fontColor=#000000;" parent="21ea969265ad0168-14" vertex="1">
          <mxGeometry y="112" width="115" height="30" as="geometry" />
        </mxCell>
        <mxCell id="21ea969265ad0168-18" value="main.yml" style="swimlane;html=1;fontStyle=0;childLayout=stackLayout;horizontal=1;startSize=26;fillColor=#e0e0e0;horizontalStack=0;resizeParent=1;resizeLast=0;collapsible=1;marginBottom=0;swimlaneFillColor=#ffffff;align=center;rounded=1;shadow=0;comic=0;labelBackgroundColor=none;strokeWidth=1;fontFamily=Verdana;fontSize=12" parent="1" vertex="1">
          <mxGeometry x="41.25" y="1600" width="290" height="80" as="geometry" />
        </mxCell>
        <mxCell id="21ea969265ad0168-19" value="&lt;div style=&quot;color: rgb(212, 212, 212); font-family: &amp;quot;Droid Sans Mono&amp;quot;, &amp;quot;monospace&amp;quot;, monospace; font-weight: normal; line-height: 19px;&quot;&gt;&lt;div&gt;&lt;font style=&quot;font-size: 12px;&quot;&gt;&lt;span style=&quot;background-color: transparent;&quot;&gt;- &lt;span style=&quot;color: #569cd6;&quot;&gt;name&lt;/span&gt;&lt;span style=&quot;color: #d4d4d4;&quot;&gt;: &lt;/span&gt;&lt;span style=&quot;color: #ce9178;&quot;&gt;restart HAProxy&lt;/span&gt;&lt;/span&gt;&lt;/font&gt;&lt;/div&gt;&lt;div&gt;&lt;font style=&quot;font-size: 12px;&quot;&gt;&lt;span style=&quot;color: rgb(212, 212, 212); background-color: transparent;&quot;&gt;  &lt;/span&gt;&lt;span style=&quot;color: rgb(86, 156, 214); background-color: transparent;&quot;&gt;service&lt;/span&gt;&lt;span style=&quot;color: rgb(212, 212, 212); background-color: transparent;&quot;&gt;:  &lt;/span&gt;&lt;span style=&quot;color: rgb(206, 145, 120); background-color: transparent;&quot;&gt;name=haproxy state=restarted&lt;/span&gt;&lt;span style=&quot;color: rgb(212, 212, 212); background-color: transparent;&quot;&gt; &lt;/span&gt;&lt;/font&gt;&lt;/div&gt;&lt;/div&gt;&lt;font style=&quot;font-size: 12px;&quot;&gt;&lt;span style=&quot;font-family: monospace; background-color: transparent;&quot;&gt;&lt;/span&gt;&lt;/font&gt;" style="text;html=1;strokeColor=none;fillColor=none;spacingLeft=4;spacingRight=4;whiteSpace=wrap;overflow=hidden;rotatable=0;points=[[0,0.5],[1,0.5]];portConstraint=eastwest;" parent="21ea969265ad0168-18" vertex="1">
          <mxGeometry y="26" width="290" height="44" as="geometry" />
        </mxCell>
        <mxCell id="21ea969265ad0168-26" value="&lt;div&gt;main.yml&lt;/div&gt;" style="swimlane;html=1;fontStyle=0;childLayout=stackLayout;horizontal=1;startSize=26;fillColor=#e0e0e0;horizontalStack=0;resizeParent=1;resizeLast=0;collapsible=1;marginBottom=0;swimlaneFillColor=#ffffff;align=center;rounded=1;shadow=0;comic=0;labelBackgroundColor=none;strokeWidth=1;fontFamily=Verdana;fontSize=12" parent="1" vertex="1">
          <mxGeometry x="770" y="320" width="305" height="530" as="geometry" />
        </mxCell>
        <mxCell id="21ea969265ad0168-29" value="&lt;div style=&quot;color: rgb(212, 212, 212); font-family: &amp;quot;Droid Sans Mono&amp;quot;, &amp;quot;monospace&amp;quot;, monospace; font-weight: normal; line-height: 19px;&quot;&gt;&lt;div style=&quot;color: rgb(131, 148, 150); font-family: Consolas, &amp;quot;Courier New&amp;quot;, monospace; line-height: 19px;&quot;&gt;&lt;div style=&quot;&quot;&gt;&lt;span style=&quot;background-color: initial; color: rgb(38, 139, 210);&quot;&gt;haproxy_chroot&lt;/span&gt;&lt;span style=&quot;background-color: initial;&quot;&gt;: &lt;/span&gt;&lt;span style=&quot;background-color: initial; color: rgb(42, 161, 152);&quot;&gt;/var/lib/haproxy&lt;/span&gt;&lt;br&gt;&lt;/div&gt;&lt;div style=&quot;&quot;&gt;&lt;span style=&quot;color: #268bd2;&quot;&gt;haproxy_user&lt;/span&gt;: &lt;span style=&quot;color: #2aa198;&quot;&gt;haproxy&lt;/span&gt;&lt;/div&gt;&lt;div style=&quot;&quot;&gt;&lt;span style=&quot;color: #268bd2;&quot;&gt;haproxy_group&lt;/span&gt;: &lt;span style=&quot;color: #2aa198;&quot;&gt;haproxy&lt;/span&gt;&lt;/div&gt;&lt;br&gt;&lt;div style=&quot;&quot;&gt;&lt;span style=&quot;color: #586e75;font-style: italic;&quot;&gt;# Frontend settings&lt;/span&gt;&lt;/div&gt;&lt;div style=&quot;&quot;&gt;&lt;span style=&quot;color: #268bd2;&quot;&gt;haproxy_frontend_name&lt;/span&gt;: &lt;span style=&quot;color: #2aa198;&quot;&gt;&#39;hafrontend&#39;&lt;/span&gt;&lt;/div&gt;&lt;div style=&quot;&quot;&gt;&lt;span style=&quot;color: #268bd2;&quot;&gt;haproxy_frontend_bind_address&lt;/span&gt;: &lt;span style=&quot;color: #2aa198;&quot;&gt;&#39;*&#39;&lt;/span&gt;&lt;/div&gt;&lt;div style=&quot;&quot;&gt;&lt;span style=&quot;color: #268bd2;&quot;&gt;haproxy_frontend_port&lt;/span&gt;: &lt;span style=&quot;color: #d33682;&quot;&gt;80&lt;/span&gt;&lt;/div&gt;&lt;div style=&quot;&quot;&gt;&lt;span style=&quot;color: #268bd2;&quot;&gt;haproxy_frontend_mode&lt;/span&gt;: &lt;span style=&quot;color: #2aa198;&quot;&gt;&#39;http&#39;&lt;/span&gt;&lt;/div&gt;&lt;br&gt;&lt;div style=&quot;&quot;&gt;&lt;span style=&quot;color: #586e75;font-style: italic;&quot;&gt;# Backend settings&lt;/span&gt;&lt;/div&gt;&lt;div style=&quot;&quot;&gt;&lt;span style=&quot;color: #268bd2;&quot;&gt;haproxy_backend_name&lt;/span&gt;: &lt;span style=&quot;color: #2aa198;&quot;&gt;&#39;habackend&#39;&lt;/span&gt;&lt;/div&gt;&lt;div style=&quot;&quot;&gt;&lt;span style=&quot;color: #268bd2;&quot;&gt;haproxy_backend_mode&lt;/span&gt;: &lt;span style=&quot;color: #2aa198;&quot;&gt;&#39;http&#39;&lt;/span&gt;&lt;/div&gt;&lt;div style=&quot;&quot;&gt;&lt;span style=&quot;color: #268bd2;&quot;&gt;haproxy_backend_balance_method&lt;/span&gt;: &lt;span style=&quot;color: #2aa198;&quot;&gt;&#39;roundrobin&#39;&lt;/span&gt;&lt;/div&gt;&lt;br&gt;&lt;div style=&quot;&quot;&gt;&lt;span style=&quot;color: #586e75;font-style: italic;&quot;&gt;# List backend servers&lt;/span&gt;&lt;/div&gt;&lt;div style=&quot;&quot;&gt;&lt;span style=&quot;color: #268bd2;&quot;&gt;haproxy_backend_servers&lt;/span&gt;:&lt;/div&gt;&lt;div style=&quot;&quot;&gt;&amp;nbsp; - &lt;span style=&quot;color: #268bd2;&quot;&gt;name&lt;/span&gt;: &lt;span style=&quot;color: #2aa198;&quot;&gt;webserver-one&lt;/span&gt;&lt;/div&gt;&lt;div style=&quot;&quot;&gt;&amp;nbsp; &amp;nbsp; &lt;span style=&quot;color: #268bd2;&quot;&gt;address&lt;/span&gt;: &lt;span style=&quot;color: #d33682;&quot;&gt;192.168.56.202&lt;/span&gt;&lt;/div&gt;&lt;div style=&quot;&quot;&gt;&amp;nbsp; - &lt;span style=&quot;color: #268bd2;&quot;&gt;name&lt;/span&gt;: &lt;span style=&quot;color: #2aa198;&quot;&gt;webserver-two&lt;/span&gt;&lt;/div&gt;&lt;div style=&quot;&quot;&gt;&amp;nbsp; &amp;nbsp; &lt;span style=&quot;color: #268bd2;&quot;&gt;address&lt;/span&gt;: &lt;span style=&quot;color: #d33682;&quot;&gt;192.168.56.203&lt;/span&gt;&lt;/div&gt;&lt;br&gt;&lt;div style=&quot;&quot;&gt;&lt;span style=&quot;color: #586e75;font-style: italic;&quot;&gt;#&lt;/span&gt;&lt;/div&gt;&lt;div style=&quot;&quot;&gt;&lt;span style=&quot;color: #268bd2;&quot;&gt;haproxy_stats_url&lt;/span&gt;: &lt;span style=&quot;color: #2aa198;&quot;&gt;&#39;/haproxy?stats&#39;&lt;/span&gt;&lt;/div&gt;&lt;div style=&quot;&quot;&gt;&lt;span style=&quot;color: #268bd2;&quot;&gt;haproxy_stats_user&lt;/span&gt;: &lt;span style=&quot;color: #2aa198;&quot;&gt;&#39;root&#39;&lt;/span&gt;&lt;/div&gt;&lt;div style=&quot;&quot;&gt;&lt;span style=&quot;color: rgb(38, 139, 210);&quot;&gt;haproxy_stats_password&lt;/span&gt;: &lt;span style=&quot;color: rgb(42, 161, 152);&quot;&gt;&#39;root&#39;&lt;/span&gt;&lt;/div&gt;&lt;/div&gt;&lt;/div&gt;" style="text;html=1;strokeColor=none;fillColor=none;spacingLeft=4;spacingRight=4;whiteSpace=wrap;overflow=hidden;rotatable=0;points=[[0,0.5],[1,0.5]];portConstraint=eastwest;" parent="21ea969265ad0168-26" vertex="1">
          <mxGeometry y="26" width="305" height="504" as="geometry" />
        </mxCell>
        <mxCell id="MNGuI7QMeHTy9qWYFs6P-71" style="edgeStyle=orthogonalEdgeStyle;rounded=0;orthogonalLoop=1;jettySize=auto;html=1;fontSize=12;fontColor=#1E1E1E;" parent="1" source="21ea969265ad0168-30" target="MNGuI7QMeHTy9qWYFs6P-66" edge="1">
          <mxGeometry relative="1" as="geometry" />
        </mxCell>
        <mxCell id="21ea969265ad0168-30" value="loadbalancer" style="html=1;rounded=0;shadow=0;comic=0;labelBackgroundColor=none;strokeWidth=2;fontFamily=Verdana;fontSize=12;align=center;shape=mxgraph.ios7ui.horLines;" parent="1" vertex="1">
          <mxGeometry x="940" y="40" width="135" height="50" as="geometry" />
        </mxCell>
        <mxCell id="MNGuI7QMeHTy9qWYFs6P-33" style="edgeStyle=orthogonalEdgeStyle;rounded=0;orthogonalLoop=1;jettySize=auto;html=1;entryX=0;entryY=0.5;entryDx=0;entryDy=0;" parent="1" source="MNGuI7QMeHTy9qWYFs6P-29" target="21ea969265ad0168-10" edge="1">
          <mxGeometry relative="1" as="geometry" />
        </mxCell>
        <mxCell id="MNGuI7QMeHTy9qWYFs6P-29" value="&lt;div&gt;$hosts&lt;/div&gt;" style="html=1;rounded=0;shadow=0;comic=0;labelBackgroundColor=none;strokeWidth=2;fontFamily=Verdana;fontSize=12;align=center;shape=mxgraph.ios7ui.horLines;" parent="1" vertex="1">
          <mxGeometry x="320" y="87.75" width="50" height="24.5" as="geometry" />
        </mxCell>
        <mxCell id="MNGuI7QMeHTy9qWYFs6P-30" style="edgeStyle=orthogonalEdgeStyle;rounded=0;orthogonalLoop=1;jettySize=auto;html=1;" parent="1" source="21ea969265ad0168-6" target="MNGuI7QMeHTy9qWYFs6P-29" edge="1">
          <mxGeometry relative="1" as="geometry" />
        </mxCell>
        <mxCell id="MNGuI7QMeHTy9qWYFs6P-43" value="&lt;div&gt;main.yml&lt;/div&gt;" style="swimlane;html=1;fontStyle=0;childLayout=stackLayout;horizontal=1;startSize=26;fillColor=#e0e0e0;horizontalStack=0;resizeParent=1;resizeLast=0;collapsible=1;marginBottom=0;swimlaneFillColor=#ffffff;align=center;rounded=1;shadow=0;comic=0;labelBackgroundColor=none;strokeWidth=1;fontFamily=Verdana;fontSize=12" parent="1" vertex="1">
          <mxGeometry x="645" y="1275" width="430" height="410" as="geometry" />
        </mxCell>
        <mxCell id="MNGuI7QMeHTy9qWYFs6P-54" value="&lt;div style=&quot;color: rgb(212, 212, 212); font-family: &amp;quot;Droid Sans Mono&amp;quot;, &amp;quot;monospace&amp;quot;, monospace; font-weight: normal; line-height: 19px;&quot;&gt;&lt;div style=&quot;&quot;&gt;&lt;div style=&quot;color: rgb(131, 148, 150); font-family: Consolas, &amp;quot;Courier New&amp;quot;, monospace; line-height: 19px;&quot;&gt;&lt;div style=&quot;&quot;&gt;- name: &lt;span style=&quot;color: rgb(42, 161, 152);&quot;&gt;Ensure HAProxy &amp;nbsp;is installed&lt;/span&gt;&lt;/div&gt;&lt;div style=&quot;&quot;&gt;&amp;nbsp; &lt;span style=&quot;color: #268bd2;&quot;&gt;apt&lt;/span&gt;: &lt;span style=&quot;color: #2aa198;&quot;&gt;name=haproxy state=latest&lt;/span&gt;&lt;/div&gt;&lt;br&gt;&lt;div style=&quot;&quot;&gt;- &lt;span style=&quot;color: #268bd2;&quot;&gt;name&lt;/span&gt;: &lt;span style=&quot;color: #2aa198;&quot;&gt;Ensure HAProxy is enable&lt;/span&gt;&lt;/div&gt;&lt;div style=&quot;&quot;&gt;&amp;nbsp; &lt;span style=&quot;color: #268bd2;&quot;&gt;lineinfile&lt;/span&gt;: &amp;nbsp; &amp;nbsp;&lt;span style=&quot;color: #586e75;font-style: italic;&quot;&gt;#Modulo&lt;/span&gt;&lt;/div&gt;&lt;div style=&quot;&quot;&gt;&amp;nbsp; &amp;nbsp; &lt;span style=&quot;color: #268bd2;&quot;&gt;dest&lt;/span&gt;: &lt;span style=&quot;color: #2aa198;&quot;&gt;/etc/default/haproxy&lt;/span&gt;&lt;/div&gt;&lt;div style=&quot;&quot;&gt;&amp;nbsp; &amp;nbsp; &lt;span style=&quot;color: #268bd2;&quot;&gt;regexp&lt;/span&gt;: &lt;span style=&quot;color: #2aa198;&quot;&gt;&quot;^ENABLED.+$&quot;&lt;/span&gt; &lt;span style=&quot;color: #586e75;font-style: italic;&quot;&gt;#Busca por medio de expresion regular&lt;/span&gt;&lt;/div&gt;&lt;div style=&quot;&quot;&gt;&amp;nbsp; &amp;nbsp; &lt;span style=&quot;color: #268bd2;&quot;&gt;line&lt;/span&gt;: &lt;span style=&quot;color: #2aa198;&quot;&gt;&quot;ENABLED=1&quot;&lt;/span&gt; &amp;nbsp; &lt;span style=&quot;color: #586e75;font-style: italic;&quot;&gt;#Si no se encuentra, añadira la linea&lt;/span&gt;&lt;/div&gt;&lt;div style=&quot;&quot;&gt;&amp;nbsp; &amp;nbsp; &lt;span style=&quot;color: #268bd2;&quot;&gt;state&lt;/span&gt;: &lt;span style=&quot;color: #2aa198;&quot;&gt;present&lt;/span&gt; &amp;nbsp;&lt;span style=&quot;color: #586e75;font-style: italic;&quot;&gt;#Obliga a que este preseten la linea&lt;/span&gt;&lt;/div&gt;&lt;br&gt;&lt;div style=&quot;&quot;&gt;- &lt;span style=&quot;color: #268bd2;&quot;&gt;name&lt;/span&gt;: &lt;span style=&quot;color: #2aa198;&quot;&gt;Copy HAProcxy configuration file&lt;/span&gt;&lt;/div&gt;&lt;div style=&quot;&quot;&gt;&amp;nbsp; &lt;span style=&quot;color: #268bd2;&quot;&gt;template&lt;/span&gt;:&lt;/div&gt;&lt;div style=&quot;&quot;&gt;&amp;nbsp; &amp;nbsp; &lt;span style=&quot;color: #268bd2;&quot;&gt;src&lt;/span&gt;: &lt;span style=&quot;color: #2aa198;&quot;&gt;haproxy.cfg.j2&lt;/span&gt;&lt;/div&gt;&lt;div style=&quot;&quot;&gt;&amp;nbsp; &amp;nbsp; &lt;span style=&quot;color: #268bd2;&quot;&gt;dest&lt;/span&gt;: &lt;span style=&quot;color: #2aa198;&quot;&gt;/etc/haproxy/haproxy.cfg&lt;/span&gt;&lt;/div&gt;&lt;div style=&quot;&quot;&gt;&amp;nbsp; &amp;nbsp; &lt;span style=&quot;color: #268bd2;&quot;&gt;mode&lt;/span&gt;: &lt;span style=&quot;color: #d33682;&quot;&gt;6644&lt;/span&gt;&lt;/div&gt;&lt;div style=&quot;&quot;&gt;&amp;nbsp; &amp;nbsp; &lt;span style=&quot;color: #268bd2;&quot;&gt;validate&lt;/span&gt;: &lt;span style=&quot;color: #2aa198;&quot;&gt;haproxy -f %s -c -q&lt;/span&gt;&lt;/div&gt;&lt;div style=&quot;&quot;&gt;&amp;nbsp; &lt;span style=&quot;color: #268bd2;&quot;&gt;notify&lt;/span&gt;: &lt;span style=&quot;color: #2aa198;&quot;&gt;restart HAProxy&lt;/span&gt;&lt;/div&gt;&lt;br&gt;&lt;div style=&quot;&quot;&gt;- &lt;span style=&quot;color: #268bd2;&quot;&gt;name&lt;/span&gt;: &lt;span style=&quot;color: #2aa198;&quot;&gt;Ensure HAProxy is started and enabled on boot&lt;/span&gt;&lt;/div&gt;&lt;div style=&quot;&quot;&gt;&amp;nbsp; &lt;span style=&quot;color: rgb(38, 139, 210);&quot;&gt;service&lt;/span&gt;: &lt;span style=&quot;color: rgb(42, 161, 152);&quot;&gt;name=haproxy state=started enabled=yes&lt;/span&gt;&lt;/div&gt;&lt;/div&gt;&lt;/div&gt;&lt;/div&gt;" style="text;align=left;verticalAlign=middle;spacingLeft=4;spacingRight=4;overflow=hidden;points=[[0,0.5],[1,0.5]];portConstraint=eastwest;rotatable=0;whiteSpace=wrap;html=1;fontSize=12;labelBackgroundColor=default;" parent="MNGuI7QMeHTy9qWYFs6P-43" vertex="1">
          <mxGeometry y="26" width="430" height="384" as="geometry" />
        </mxCell>
        <mxCell id="MNGuI7QMeHTy9qWYFs6P-45" value="&lt;div&gt;VARIABLE DE GRUPO&lt;/div&gt;&lt;div&gt;./group_vars&lt;br&gt;&lt;/div&gt;" style="swimlane;html=1;fontStyle=0;childLayout=stackLayout;horizontal=1;startSize=26;fillColor=#e0e0e0;horizontalStack=0;resizeParent=1;resizeLast=0;collapsible=1;marginBottom=0;swimlaneFillColor=#ffffff;align=center;rounded=1;shadow=0;comic=0;labelBackgroundColor=none;strokeWidth=1;fontFamily=Verdana;fontSize=12" parent="1" vertex="1">
          <mxGeometry x="930" y="210" width="155" height="86" as="geometry" />
        </mxCell>
        <mxCell id="MNGuI7QMeHTy9qWYFs6P-68" value="&lt;div&gt;all.yml&lt;/div&gt;" style="text;strokeColor=none;fillColor=none;align=left;verticalAlign=middle;spacingLeft=4;spacingRight=4;overflow=hidden;points=[[0,0.5],[1,0.5]];portConstraint=eastwest;rotatable=0;whiteSpace=wrap;html=1;fontSize=12;fontColor=#1E1E1E;" parent="MNGuI7QMeHTy9qWYFs6P-45" vertex="1">
          <mxGeometry y="26" width="155" height="30" as="geometry" />
        </mxCell>
        <mxCell id="MNGuI7QMeHTy9qWYFs6P-69" value="&lt;font color=&quot;#1E1E1E&quot;&gt;loadalancers.yml&lt;/font&gt;" style="text;strokeColor=none;fillColor=none;align=left;verticalAlign=middle;spacingLeft=4;spacingRight=4;overflow=hidden;points=[[0,0.5],[1,0.5]];portConstraint=eastwest;rotatable=0;whiteSpace=wrap;html=1;fontSize=12;fontColor=#ffffff;" parent="MNGuI7QMeHTy9qWYFs6P-45" vertex="1">
          <mxGeometry y="56" width="155" height="30" as="geometry" />
        </mxCell>
        <mxCell id="MNGuI7QMeHTy9qWYFs6P-56" value="haproxy.cfg.j2" style="swimlane;html=1;fontStyle=0;childLayout=stackLayout;horizontal=1;startSize=26;fillColor=#e0e0e0;horizontalStack=0;resizeParent=1;resizeLast=0;collapsible=1;marginBottom=0;swimlaneFillColor=#ffffff;align=center;rounded=1;shadow=0;comic=0;labelBackgroundColor=none;strokeWidth=1;fontFamily=Verdana;fontSize=12" parent="1" vertex="1">
          <mxGeometry x="140" y="330" width="490" height="1160" as="geometry" />
        </mxCell>
        <mxCell id="MNGuI7QMeHTy9qWYFs6P-57" value="&lt;div style=&quot;color: rgb(131, 148, 150); font-family: Consolas, &amp;quot;Courier New&amp;quot;, monospace; line-height: 19px;&quot;&gt;&lt;div style=&quot;&quot;&gt;global&lt;/div&gt;&lt;div style=&quot;&quot;&gt;&amp;nbsp; &amp;nbsp; &amp;nbsp; &amp;nbsp; log /dev/log &amp;nbsp; &amp;nbsp;local0&lt;/div&gt;&lt;div style=&quot;&quot;&gt;&amp;nbsp; &amp;nbsp; &amp;nbsp; &amp;nbsp; log /dev/log &amp;nbsp; &amp;nbsp;local1 notice&lt;/div&gt;&lt;div style=&quot;&quot;&gt;&amp;nbsp; &amp;nbsp; &amp;nbsp; &amp;nbsp; chroot {{ haproxy_chroot }}&lt;/div&gt;&lt;div style=&quot;&quot;&gt;&amp;nbsp; &amp;nbsp; &amp;nbsp; &amp;nbsp; stats socket /run/haproxy/admin.sock mode 660 level admin expose-fd listeners&lt;/div&gt;&lt;div style=&quot;&quot;&gt;&amp;nbsp; &amp;nbsp; &amp;nbsp; &amp;nbsp; stats timeout 30s&lt;/div&gt;&lt;div style=&quot;&quot;&gt;&amp;nbsp; &amp;nbsp; &amp;nbsp; &amp;nbsp; user {{ haproxy_user}}&lt;/div&gt;&lt;div style=&quot;&quot;&gt;&amp;nbsp; &amp;nbsp; &amp;nbsp; &amp;nbsp; group {{ haproxy_group }}&lt;/div&gt;&lt;div style=&quot;&quot;&gt;&amp;nbsp; &amp;nbsp; &amp;nbsp; &amp;nbsp; daemon&lt;/div&gt;&lt;br&gt;&lt;div style=&quot;&quot;&gt;&amp;nbsp; &amp;nbsp; &amp;nbsp; &amp;nbsp; # Default SSL material locations&lt;/div&gt;&lt;div style=&quot;&quot;&gt;&amp;nbsp; &amp;nbsp; &amp;nbsp; &amp;nbsp; ca-base /etc/ssl/certs&lt;/div&gt;&lt;div style=&quot;&quot;&gt;&amp;nbsp; &amp;nbsp; &amp;nbsp; &amp;nbsp; crt-base /etc/ssl/private&lt;/div&gt;&lt;br&gt;&lt;div style=&quot;&quot;&gt;&amp;nbsp; &amp;nbsp; &amp;nbsp; &amp;nbsp; # See: https://ssl-config.mozilla.org/#server=haproxy&amp;amp;server-version=2.0.3&amp;amp;config=intermediate&lt;/div&gt;&lt;div style=&quot;&quot;&gt;&amp;nbsp; &amp;nbsp; &amp;nbsp; &amp;nbsp; ssl-default-bind-ciphers ECDHE-ECDSA-AES128-GCM-SHA256:ECDHE-RSA-AES128-GCM-SHA256:ECDHE-ECDSA-AES256-GCM-SHA384:ECDHE-RSA-AES256-GCM-SHA384:ECDHE-ECDSA-CHACHA20-POLY1305:ECDHE-RSA-CHACHA20-POLY1305:DHE-RSA-AES128-GCM-SHA256:DHE-RSA-AES256-GCM-SHA384&lt;/div&gt;&lt;div style=&quot;&quot;&gt;&amp;nbsp; &amp;nbsp; &amp;nbsp; &amp;nbsp; ssl-default-bind-ciphersuites TLS_AES_128_GCM_SHA256:TLS_AES_256_GCM_SHA384:TLS_CHACHA20_POLY1305_SHA256&lt;/div&gt;&lt;div style=&quot;&quot;&gt;&amp;nbsp; &amp;nbsp; &amp;nbsp; &amp;nbsp; ssl-default-bind-options ssl-min-ver TLSv1.2 no-tls-tickets&lt;/div&gt;&lt;br&gt;&lt;div style=&quot;&quot;&gt;defaults&lt;/div&gt;&lt;div style=&quot;&quot;&gt;&amp;nbsp; &amp;nbsp; &amp;nbsp; &amp;nbsp; log &amp;nbsp; &amp;nbsp; global&lt;/div&gt;&lt;div style=&quot;&quot;&gt;&amp;nbsp; &amp;nbsp; &amp;nbsp; &amp;nbsp; mode &amp;nbsp; &amp;nbsp;http&lt;/div&gt;&lt;div style=&quot;&quot;&gt;&amp;nbsp; &amp;nbsp; &amp;nbsp; &amp;nbsp; option &amp;nbsp;httplog&lt;/div&gt;&lt;div style=&quot;&quot;&gt;&amp;nbsp; &amp;nbsp; &amp;nbsp; &amp;nbsp; option &amp;nbsp;dontlognull&lt;/div&gt;&lt;div style=&quot;&quot;&gt;&amp;nbsp; &amp;nbsp; &amp;nbsp; &amp;nbsp; timeout connect 5000&lt;/div&gt;&lt;div style=&quot;&quot;&gt;&amp;nbsp; &amp;nbsp; &amp;nbsp; &amp;nbsp; timeout client &amp;nbsp;50000&lt;/div&gt;&lt;div style=&quot;&quot;&gt;&amp;nbsp; &amp;nbsp; &amp;nbsp; &amp;nbsp; timeout server &amp;nbsp;50000&lt;/div&gt;&lt;div style=&quot;&quot;&gt;&amp;nbsp; &amp;nbsp; &amp;nbsp; &amp;nbsp; errorfile 400 /etc/haproxy/errors/400.http&lt;/div&gt;&lt;div style=&quot;&quot;&gt;&amp;nbsp; &amp;nbsp; &amp;nbsp; &amp;nbsp; errorfile 403 /etc/haproxy/errors/403.http&lt;/div&gt;&lt;div style=&quot;&quot;&gt;&amp;nbsp; &amp;nbsp; &amp;nbsp; &amp;nbsp; errorfile 408 /etc/haproxy/errors/408.http&lt;/div&gt;&lt;div style=&quot;&quot;&gt;&amp;nbsp; &amp;nbsp; &amp;nbsp; &amp;nbsp; errorfile 500 /etc/haproxy/errors/500.http&lt;/div&gt;&lt;div style=&quot;&quot;&gt;&amp;nbsp; &amp;nbsp; &amp;nbsp; &amp;nbsp; errorfile 502 /etc/haproxy/errors/502.http&lt;/div&gt;&lt;div style=&quot;&quot;&gt;&amp;nbsp; &amp;nbsp; &amp;nbsp; &amp;nbsp; errorfile 503 /etc/haproxy/errors/503.http&lt;/div&gt;&lt;div style=&quot;&quot;&gt;&amp;nbsp; &amp;nbsp; &amp;nbsp; &amp;nbsp; errorfile 504 /etc/haproxy/errors/504.http&lt;/div&gt;&lt;br&gt;&lt;div style=&quot;&quot;&gt;frontend {{ haproxy_frontend_name }}&lt;/div&gt;&lt;div style=&quot;&quot;&gt;&amp;nbsp; &amp;nbsp; bind {{ haproxy_frontend_bind_address }}:{{ haproxy_frontend_port }}&lt;/div&gt;&lt;div style=&quot;&quot;&gt;&amp;nbsp; &amp;nbsp; mode {{ haproxy_frontend_mode }}&lt;/div&gt;&lt;div style=&quot;&quot;&gt;&amp;nbsp; &amp;nbsp; default_backend {{ haproxy_backend_name }}&lt;/div&gt;&lt;br&gt;&lt;div style=&quot;&quot;&gt;backend {{ haproxy_backend_name }}&lt;/div&gt;&lt;div style=&quot;&quot;&gt;&amp;nbsp; &amp;nbsp; mode {{ haproxy_backend_mode }}&lt;/div&gt;&lt;div style=&quot;&quot;&gt;&amp;nbsp; &amp;nbsp; stats enable&lt;/div&gt;&lt;div style=&quot;&quot;&gt;&amp;nbsp; &amp;nbsp; stats uri {{ haproxy_stats_url }}&lt;/div&gt;&lt;div style=&quot;&quot;&gt;&amp;nbsp; &amp;nbsp; stats realm Strictly\ Private&lt;/div&gt;&lt;div style=&quot;&quot;&gt;&amp;nbsp; &amp;nbsp; stats auth {{ haproxy_stats_user }}:{{ haproxy_stats_password }}&lt;/div&gt;&lt;div style=&quot;&quot;&gt;&amp;nbsp; &amp;nbsp; balance {{ haproxy_backend_balance_method }}&lt;/div&gt;&lt;div style=&quot;&quot;&gt;&amp;nbsp; &amp;nbsp; balance roundrobin&lt;/div&gt;&lt;div style=&quot;&quot;&gt;&amp;nbsp; &amp;nbsp; option httpclose&lt;/div&gt;&lt;div style=&quot;&quot;&gt;&amp;nbsp; &amp;nbsp; option forwardfor&lt;/div&gt;&lt;div style=&quot;&quot;&gt;&amp;nbsp; &amp;nbsp; {% for backend in haproxy_backend_servers %}&lt;/div&gt;&lt;div style=&quot;&quot;&gt;&amp;nbsp; &amp;nbsp; &amp;nbsp; &amp;nbsp; server {{ backend.name }} {{ backend.address }} check port 80&lt;/div&gt;&lt;div style=&quot;&quot;&gt;&amp;nbsp; &amp;nbsp; {% endfor %}&lt;/div&gt;&lt;/div&gt;" style="text;html=1;strokeColor=none;fillColor=none;spacingLeft=4;spacingRight=4;whiteSpace=wrap;overflow=hidden;rotatable=0;points=[[0,0.5],[1,0.5]];portConstraint=eastwest;" parent="MNGuI7QMeHTy9qWYFs6P-56" vertex="1">
          <mxGeometry y="26" width="490" height="1134" as="geometry" />
        </mxCell>
        <mxCell id="MNGuI7QMeHTy9qWYFs6P-62" style="edgeStyle=orthogonalEdgeStyle;rounded=0;orthogonalLoop=1;jettySize=auto;html=1;entryX=1;entryY=0.5;entryDx=0;entryDy=0;fontSize=12;fontColor=#ffffff;" parent="1" source="21ea969265ad0168-29" target="MNGuI7QMeHTy9qWYFs6P-57" edge="1">
          <mxGeometry relative="1" as="geometry" />
        </mxCell>
        <mxCell id="MNGuI7QMeHTy9qWYFs6P-70" style="edgeStyle=orthogonalEdgeStyle;rounded=0;orthogonalLoop=1;jettySize=auto;html=1;fontSize=12;fontColor=#1E1E1E;" parent="1" source="MNGuI7QMeHTy9qWYFs6P-63" target="MNGuI7QMeHTy9qWYFs6P-45" edge="1">
          <mxGeometry relative="1" as="geometry" />
        </mxCell>
        <mxCell id="MNGuI7QMeHTy9qWYFs6P-63" value="[loadbalancers]" style="html=1;rounded=0;shadow=0;comic=0;labelBackgroundColor=none;strokeWidth=2;fontFamily=Verdana;fontSize=12;align=center;shape=mxgraph.ios7ui.horLines;" parent="1" vertex="1">
          <mxGeometry x="670" y="180" width="135" height="50" as="geometry" />
        </mxCell>
        <mxCell id="MNGuI7QMeHTy9qWYFs6P-66" value="&lt;div&gt;VARIABLE DE HOST&lt;/div&gt;&lt;div&gt;./host_group&lt;br&gt;&lt;/div&gt;" style="swimlane;html=1;fontStyle=0;childLayout=stackLayout;horizontal=1;startSize=26;fillColor=#e0e0e0;horizontalStack=0;resizeParent=1;resizeLast=0;collapsible=1;marginBottom=0;swimlaneFillColor=#ffffff;align=center;rounded=1;shadow=0;comic=0;labelBackgroundColor=none;strokeWidth=1;fontFamily=Verdana;fontSize=12" parent="1" vertex="1">
          <mxGeometry x="927.5" y="130" width="160" height="60" as="geometry" />
        </mxCell>
        <mxCell id="MNGuI7QMeHTy9qWYFs6P-67" value="loadbalancer.yml" style="text;html=1;strokeColor=none;fillColor=none;spacingLeft=4;spacingRight=4;whiteSpace=wrap;overflow=hidden;rotatable=0;points=[[0,0.5],[1,0.5]];portConstraint=eastwest;" parent="MNGuI7QMeHTy9qWYFs6P-66" vertex="1">
          <mxGeometry y="26" width="160" height="26" as="geometry" />
        </mxCell>
        <mxCell id="MF2A-QJHD-7ca1o9ArYh-4" style="edgeStyle=orthogonalEdgeStyle;rounded=0;orthogonalLoop=1;jettySize=auto;html=1;entryX=0.25;entryY=0;entryDx=0;entryDy=0;" edge="1" parent="1" source="21ea969265ad0168-15" target="21ea969265ad0168-26">
          <mxGeometry relative="1" as="geometry">
            <Array as="points">
              <mxPoint x="610" y="210" />
              <mxPoint x="610" y="260" />
              <mxPoint x="846" y="260" />
            </Array>
          </mxGeometry>
        </mxCell>
        <mxCell id="MF2A-QJHD-7ca1o9ArYh-7" style="edgeStyle=orthogonalEdgeStyle;rounded=0;orthogonalLoop=1;jettySize=auto;html=1;entryX=-0.03;entryY=0.56;entryDx=0;entryDy=0;entryPerimeter=0;" edge="1" parent="1" source="21ea969265ad0168-52" target="21ea969265ad0168-30">
          <mxGeometry relative="1" as="geometry" />
        </mxCell>
        <mxCell id="MF2A-QJHD-7ca1o9ArYh-9" style="edgeStyle=orthogonalEdgeStyle;rounded=0;orthogonalLoop=1;jettySize=auto;html=1;entryX=0.75;entryY=0;entryDx=0;entryDy=0;fontSize=12;" edge="1" parent="1" source="MNGuI7QMeHTy9qWYFs6P-37" target="MNGuI7QMeHTy9qWYFs6P-56">
          <mxGeometry relative="1" as="geometry" />
        </mxCell>
        <mxCell id="MF2A-QJHD-7ca1o9ArYh-13" style="edgeStyle=orthogonalEdgeStyle;rounded=0;orthogonalLoop=1;jettySize=auto;html=1;fontSize=12;" edge="1" parent="1" source="MNGuI7QMeHTy9qWYFs6P-40" target="MNGuI7QMeHTy9qWYFs6P-43">
          <mxGeometry relative="1" as="geometry">
            <Array as="points">
              <mxPoint x="118" y="1520" />
            </Array>
          </mxGeometry>
        </mxCell>
        <mxCell id="MF2A-QJHD-7ca1o9ArYh-15" style="edgeStyle=orthogonalEdgeStyle;rounded=0;orthogonalLoop=1;jettySize=auto;html=1;fontSize=12;startArrow=none;" edge="1" parent="1" source="MF2A-QJHD-7ca1o9ArYh-16" target="21ea969265ad0168-19">
          <mxGeometry relative="1" as="geometry">
            <Array as="points" />
          </mxGeometry>
        </mxCell>
        <mxCell id="MF2A-QJHD-7ca1o9ArYh-17" value="" style="edgeStyle=orthogonalEdgeStyle;rounded=0;orthogonalLoop=1;jettySize=auto;html=1;fontSize=12;endArrow=none;" edge="1" parent="1" source="MNGuI7QMeHTy9qWYFs6P-54" target="MF2A-QJHD-7ca1o9ArYh-16">
          <mxGeometry relative="1" as="geometry">
            <mxPoint x="645" y="1610" as="sourcePoint" />
            <mxPoint x="331" y="1648" as="targetPoint" />
            <Array as="points">
              <mxPoint x="488" y="1610" />
              <mxPoint x="488" y="1648" />
            </Array>
          </mxGeometry>
        </mxCell>
        <mxCell id="MF2A-QJHD-7ca1o9ArYh-16" value="$notify" style="html=1;rounded=0;shadow=0;comic=0;labelBackgroundColor=none;strokeWidth=2;fontFamily=Verdana;fontSize=12;align=center;shape=mxgraph.ios7ui.horLines;" vertex="1" parent="1">
          <mxGeometry x="430" y="1600" width="135" height="50" as="geometry" />
        </mxCell>
        <mxCell id="MF2A-QJHD-7ca1o9ArYh-19" style="edgeStyle=orthogonalEdgeStyle;rounded=0;orthogonalLoop=1;jettySize=auto;html=1;entryX=0.047;entryY=0.038;entryDx=0;entryDy=0;entryPerimeter=0;fontSize=12;" edge="1" parent="1" source="MNGuI7QMeHTy9qWYFs6P-36" target="21ea969265ad0168-18">
          <mxGeometry relative="1" as="geometry" />
        </mxCell>
      </root>
    </mxGraphModel>
  </diagram>
</mxfile>
